<svg aria-hidden="true" style="position: absolute; width: 0; height: 0; overflow: hidden;"
    version="1.1" xmlns="http://www.w3.org/2000/svg" xmlns:xlink="http://www.w3.org/1999/xlink">
    <defs>
        <symbol id="icon-pokemon-icon" viewBox="0 0 32 32">
            <path fill="#fff" style="fill: var(--color1, #fff)"
                d="M16 21.25c-2.528 0-4.637-1.79-5.137-4.167h-8.41c0.595 6.914 6.395 12.339 13.459 12.339s12.871-5.425 13.459-12.339h-8.235c-0.5 2.384-2.609 4.167-5.137 4.167z"></path>
            <path fill="#dfdfdf" style="fill: var(--color2, #dfdfdf)"
                d="M19.004 29.071c5.607-1.314 9.868-6.114 10.369-11.989h-3.317c-0.331 5.331-3.129 9.849-7.052 11.989z"></path>
            <path fill="#fff" style="fill: var(--color1, #fff)"
                d="M19.097 16c-0.006 0-0.006 0 0 0-0.006-0.382-0.075-0.745-0.2-1.082-0.438-1.176-1.571-2.009-2.897-2.009s-2.459 0.838-2.897 2.009c-0.123 0.321-0.194 0.692-0.194 1.080 0 0.001 0 0.002 0 0.002v-0h0.006c0 0.382 0.069 0.745 0.194 1.082 0.438 1.176 1.571 2.009 2.897 2.009s2.459-0.838 2.897-2.009c0.125-0.332 0.194-0.701 0.194-1.082z"></path>
            <path fill="#ff1c1c" style="fill: var(--color3, #ff1c1c)"
                d="M16.006 10.756c2.528 0 4.637 1.79 5.137 4.167h8.41c-0.594-6.921-6.395-12.346-13.466-12.346s-12.865 5.425-13.459 12.339h8.241c0.501-2.378 2.609-4.161 5.137-4.161z"></path>
            <path fill="#df1818" style="fill: var(--color4, #df1818)"
                d="M26.056 14.918h3.491c-0.513-5.976-4.918-10.844-10.669-12.052 3.992 2.109 6.839 6.67 7.177 12.052z"></path>
            <path fill="#000" style="fill: var(--color5, #000)"
                d="M16.088 2.578c7.071 0 12.871 5.425 13.459 12.339h-8.41c-0.5-2.378-2.609-4.167-5.137-4.167s-4.637 1.79-5.137 4.167h-8.235c0.594-6.915 6.395-12.339 13.459-12.339zM18.897 14.918c0.125 0.338 0.194 0.701 0.194 1.082h0.006c0 0.382-0.069 0.745-0.194 1.082-0.438 1.176-1.571 2.009-2.897 2.009s-2.459-0.838-2.897-2.009c-0.123-0.321-0.194-0.692-0.194-1.080 0-0.001 0-0.002 0-0.002v0h-0.006c0-0.382 0.069-0.745 0.194-1.082 0.438-1.176 1.571-2.009 2.897-2.009s2.459 0.838 2.897 2.009zM15.912 29.428c-7.071 0-12.871-5.425-13.459-12.339h8.41c0.501 2.378 2.609 4.167 5.137 4.167s4.637-1.79 5.137-4.167h8.241c-0.594 6.908-6.395 12.339-13.466 12.339zM16 0c-8.835 0-16 7.164-16 16s7.165 16 16 16 16.006-7.158 16.006-16-7.165-16-16.006-16z"></path>
        </symbol>
        <symbol id="icon-heart" viewBox="0 0 32 32">
            <path d="M23.6 2c-3.363 0-6.258 2.736-7.599 5.594-1.342-2.858-4.237-5.594-7.601-5.594-4.637 0-8.4 3.764-8.4 8.401 0 9.433 9.516 11.906 16.001 21.232 6.13-9.268 15.999-12.1 15.999-21.232 0-4.637-3.763-8.401-8.4-8.401z"></path>
            </symbol>
        <symbol id="icon-search"  viewBox="0 0 32 32">
            <path
                d="M31.008 27.231l-7.58-6.447c-0.784-0.705-1.622-1.029-2.299-0.998 1.789-2.096 2.87-4.815 2.87-7.787 0-6.627-5.373-12-12-12s-12 5.373-12 12 5.373 12 12 12c2.972 0 5.691-1.081 7.787-2.87-0.031 0.677 0.293 1.515 0.998 2.299l6.447 7.58c1.104 1.226 2.907 1.33 4.007 0.23s0.997-2.903-0.23-4.007zM12 20c-4.418 0-8-3.582-8-8s3.582-8 8-8 8 3.582 8 8-3.582 8-8 8z"></path>
        </symbol>
    </defs>
</svg>