<svg xmlns="http://www.w3.org/2000/svg" viewBox="0 0 32 32">
  <path fill="#fff" style="fill: var(--color1, #fff)" d="M16 21.25c-2.528 0-4.637-1.79-5.137-4.167h-8.41c0.595 6.914 6.395 12.339 13.459 12.339s12.871-5.425 13.459-12.339h-8.235c-0.5 2.384-2.609 4.167-5.137 4.167z"/>
  <path fill="#dfdfdf" style="fill: var(--color2, #dfdfdf)" d="M19.004 29.071c5.607-1.314 9.868-6.114 10.369-11.989h-3.317c-0.331 5.331-3.129 9.849-7.052 11.989z"/>
  <path fill="#fff" style="fill: var(--color1, #fff)" d="M19.097 16c-0.006 0-0.006 0 0 0-0.006-0.382-0.075-0.745-0.2-1.082-0.438-1.176-1.571-2.009-2.897-2.009s-2.459 0.838-2.897 2.009c-0.123 0.321-0.194 0.692-0.194 1.080 0 0.001 0 0.002 0 0.002v-0h0.006c0 0.382 0.069 0.745 0.194 1.082 0.438 1.176 1.571 2.009 2.897 2.009s2.459-0.838 2.897-2.009c0.125-0.332 0.194-0.701 0.194-1.082z"/>
  <path fill="#ff1c1c" style="fill: var(--color3, #ff1c1c)" d="M16.006 10.756c2.528 0 4.637 1.79 5.137 4.167h8.41c-0.594-6.921-6.395-12.346-13.466-12.346s-12.865 5.425-13.459 12.339h8.241c0.501-2.378 2.609-4.161 5.137-4.161z"/>
  <path fill="#df1818" style="fill: var(--color4, #df1818)" d="M26.056 14.918h3.491c-0.513-5.976-4.918-10.844-10.669-12.052 3.992 2.109 6.839 6.67 7.177 12.052z"/>
  <path fill="#000" style="fill: var(--color5, #000)" d="M16.088 2.578c7.071 0 12.871 5.425 13.459 12.339h-8.41c-0.5-2.378-2.609-4.167-5.137-4.167s-4.637 1.79-5.137 4.167h-8.235c0.594-6.915 6.395-12.339 13.459-12.339zM18.897 14.918c0.125 0.338 0.194 0.701 0.194 1.082h0.006c0 0.382-0.069 0.745-0.194 1.082-0.438 1.176-1.571 2.009-2.897 2.009s-2.459-0.838-2.897-2.009c-0.123-0.321-0.194-0.692-0.194-1.080 0-0.001 0-0.002 0-0.002v0h-0.006c0-0.382 0.069-0.745 0.194-1.082 0.438-1.176 1.571-2.009 2.897-2.009s2.459 0.838 2.897 2.009zM15.912 29.428c-7.071 0-12.871-5.425-13.459-12.339h8.41c0.501 2.378 2.609 4.167 5.137 4.167s4.637-1.79 5.137-4.167h8.241c-0.594 6.908-6.395 12.339-13.466 12.339zM16 0c-8.835 0-16 7.164-16 16s7.165 16 16 16 16.006-7.158 16.006-16-7.165-16-16.006-16z"/>
</svg>